<svg viewBox="0 0 24 28" xmlns="http://www.w3.org/2000/svg" fill-rule="evenodd" clip-rule="evenodd" stroke-linejoin="round" stroke-miterlimit="2"><path d="M22 20h-2v-2h1v-2H2v2h1v2H1c-.55 0-1-.448-1-1V9c0-.967 4-2 11-2h1c6.94 0 11 1.01 11 2v10c0 .552-.45 1-1 1zm-2.5-10a1.5 1.5 0 10-.001 3.001A1.5 1.5 0 0019.5 10zM4 1c0-.552.45-1 1-1h13c.55 0 1 .448 1 1v5H4V1zm15 25c0 .552-.45 1-1 1H5c-.55 0-1-.448-1-1v-9h15v9zm-2-8H6v1h11v-1zm0 2H6v1h11v-1zm0 2H6v1h11v-1zm0 2H6v1h11v-1z" fill="#b9b9b9"/><path d="M22 20h-2v-2h1v-2H2v2h1v2H1c-.55 0-1-.448-1-1V9c0-.967 4-2 11-2h1c6.94 0 11 1.01 11 2v10c0 .552-.45 1-1 1zm-2.5-10a1.5 1.5 0 10-.001 3.001A1.5 1.5 0 0019.5 10zM4 1c0-.552.45-1 1-1h13c.55 0 1 .448 1 1v5H4V1zm15 25c0 .552-.45 1-1 1H5c-.55 0-1-.448-1-1v-9h15v9zm-2-8H6v1h11v-1zm0 2H6v1h11v-1zm0 2H6v1h11v-1zm0 2H6v1h11v-1z" fill="#b9b9b9"/></svg>